<svg version="1.1" viewBox="0.0 0.0 960.0 720.0" fill="none" stroke="none" stroke-linecap="square" stroke-miterlimit="10" xmlns:xlink="http://www.w3.org/1999/xlink" xmlns="http://www.w3.org/2000/svg"><clipPath id="p.0"><path d="m0 0l960.0 0l0 720.0l-960.0 0l0 -720.0z" clip-rule="nonzero"/></clipPath><g clip-path="url(#p.0)"><path fill="#000000" fill-opacity="0.0" d="m0 0l960.0 0l0 720.0l-960.0 0z" fill-rule="evenodd"/><path fill="#e62b02" d="m124.62239 231.41573l0 35.267197l-47.383667 0l0 -35.267197zm0 52.900803l0 35.26718l-47.383667 0l0 -35.26718zm-78.97278 -70.53439l0 123.43518l94.767334 0l0 -17.633606l15.794556 0l0 -35.26718l-15.794556 0l0 -17.633606l15.794556 0l0 -35.267197l-15.794556 0l0 -17.63359z" fill-rule="evenodd"/><path fill="#e62b02" d="m235.1842 249.04933l0 17.63359l47.383667 0l0 -17.63359zm-47.38365 0l0 88.167984l31.589096 0l0 -52.900787l15.794556 0l0 -17.633606l-15.794556 0l0 -17.63359z" fill-rule="evenodd"/><path fill="#e62b02" d="m377.33514 301.9501l0 17.633606l-47.383667 0l0 -17.633606zm-63.178223 -52.900772l0 17.63359l63.178223 0l0 17.633606l-63.178223 0l0 17.633575l-15.794556 0l0 17.633606l15.794556 0l0 17.633606l94.767334 0l0 -70.53439l-15.794556 0l0 -17.63359z" fill-rule="evenodd"/><path fill="#e62b02" d="m503.69153 266.68292l0 52.900787l-47.383667 0l0 -52.900787zm0 -52.900787l0 35.267197l-63.178223 0l0 17.63359l-15.794556 0l0 52.900787l15.794556 0l0 17.633606l94.767334 0l0 -123.43518z" fill-rule="evenodd"/><path fill="#e62b02" d="m582.66425 213.78214l0 17.63359l15.794556 0l0 88.167984l-31.589111 0l0 17.633606l94.767334 0l0 -17.633606l-31.589111 0l0 -105.801575z" fill-rule="evenodd"/><path fill="#e62b02" d="m756.40424 266.68292l0 17.633606l-47.383667 0l0 -17.633606zm-63.178223 -17.63359l0 17.63359l-15.794556 0l0 52.900787l15.794556 0l0 17.633606l78.97278 0l0 -17.633606l-63.178223 0l0 -17.633606l78.97278 0l0 -35.26718l-15.794556 0l0 -17.63359z" fill-rule="evenodd"/><path fill="#e62b02" d="m803.78784 249.04933l0 52.900772l15.794556 0l0 17.633606l63.178223 0l0 17.633606l-63.178223 0l0 17.633575l78.97278 0l0 -17.633575l15.794556 0l0 -88.167984l-31.589111 0l0 52.900772l-47.383667 0l0 -52.900772z" fill-rule="evenodd"/><path stroke="#000000" stroke-width="1.0" stroke-linejoin="round" stroke-linecap="butt" d="m124.62239 231.41573l0 35.267197l-47.383667 0l0 -35.267197zm0 52.900803l0 35.26718l-47.383667 0l0 -35.26718zm-78.97278 -70.53439l0 123.43518l94.767334 0l0 -17.633606l15.794556 0l0 -35.26718l-15.794556 0l0 -17.633606l15.794556 0l0 -35.267197l-15.794556 0l0 -17.63359z" fill-rule="evenodd"/><path stroke="#000000" stroke-width="1.0" stroke-linejoin="round" stroke-linecap="butt" d="m235.1842 249.04933l0 17.63359l47.383667 0l0 -17.63359zm-47.38365 0l0 88.167984l31.589096 0l0 -52.900787l15.794556 0l0 -17.633606l-15.794556 0l0 -17.63359z" fill-rule="evenodd"/><path stroke="#000000" stroke-width="1.0" stroke-linejoin="round" stroke-linecap="butt" d="m377.33514 301.9501l0 17.633606l-47.383667 0l0 -17.633606zm-63.178223 -52.900772l0 17.63359l63.178223 0l0 17.633606l-63.178223 0l0 17.633575l-15.794556 0l0 17.633606l15.794556 0l0 17.633606l94.767334 0l0 -70.53439l-15.794556 0l0 -17.63359z" fill-rule="evenodd"/><path stroke="#000000" stroke-width="1.0" stroke-linejoin="round" stroke-linecap="butt" d="m503.69153 266.68292l0 52.900787l-47.383667 0l0 -52.900787zm0 -52.900787l0 35.267197l-63.178223 0l0 17.63359l-15.794556 0l0 52.900787l15.794556 0l0 17.633606l94.767334 0l0 -123.43518z" fill-rule="evenodd"/><path stroke="#000000" stroke-width="1.0" stroke-linejoin="round" stroke-linecap="butt" d="m582.66425 213.78214l0 17.63359l15.794556 0l0 88.167984l-31.589111 0l0 17.633606l94.767334 0l0 -17.633606l-31.589111 0l0 -105.801575z" fill-rule="evenodd"/><path stroke="#000000" stroke-width="1.0" stroke-linejoin="round" stroke-linecap="butt" d="m756.40424 266.68292l0 17.633606l-47.383667 0l0 -17.633606zm-63.178223 -17.63359l0 17.63359l-15.794556 0l0 52.900787l15.794556 0l0 17.633606l78.97278 0l0 -17.633606l-63.178223 0l0 -17.633606l78.97278 0l0 -35.26718l-15.794556 0l0 -17.63359z" fill-rule="evenodd"/><path stroke="#000000" stroke-width="1.0" stroke-linejoin="round" stroke-linecap="butt" d="m803.78784 249.04933l0 52.900772l15.794556 0l0 17.633606l63.178223 0l0 17.633606l-63.178223 0l0 17.633575l78.97278 0l0 -17.633575l15.794556 0l0 -88.167984l-31.589111 0l0 52.900772l-47.383667 0l0 -52.900772z" fill-rule="evenodd"/><path fill="#e62b02" d="m134.74815 373.63516l0 21.992126l22.274323 0l0 43.984253l-66.82294 0l0 -43.984253l22.274307 0l0 -21.992126zm-44.548615 -21.992126l0 21.992126l-22.274315 0l0 21.992126l-22.274311 0l0 109.96063l44.548626 0l0 -43.984253l66.82294 0l0 43.984253l44.548615 0l0 -109.96063l-22.274307 0l0 -21.992126l-22.274307 0l0 -21.992126z" fill-rule="evenodd"/><path fill="#e62b02" d="m246.11963 395.6273l0 21.992126l-22.274307 0l0 65.97638l22.274307 0l0 21.992126l133.64587 0l0 -21.992126l-111.37155 0l0 -65.97638l111.37155 0l0 -21.992126z" fill-rule="evenodd"/><path fill="#e62b02" d="m402.03973 351.64304l0 153.94489l44.548615 0l0 -43.984253l44.548645 0l0 21.992126l22.274323 0l0 21.992126l44.548584 0l0 -21.992126l-22.274292 0l0 -21.992126l-22.274292 0l0 -21.992126l22.274292 0l0 -21.992126l22.274292 0l0 -21.992126l-44.548584 0l0 21.992126l-22.274323 0l0 21.992126l-44.548645 0l0 -87.968506z" fill-rule="evenodd"/><path fill="#e62b02" d="m691.6057 417.61942l0 21.992126l-66.82294 0l0 -21.992126zm-89.09723 -21.992126l0 21.992126l-22.274292 0l0 65.97638l22.274292 0l0 21.992126l111.37158 0l0 -21.992126l-89.09729 0l0 -21.992126l111.37158 0l0 -43.984253l-22.274292 0l0 -21.992126z" fill-rule="evenodd"/><path fill="#e62b02" d="m847.5258 395.6273l0 21.992126l66.82294 0l0 -21.992126zm-66.82294 0l0 109.96063l44.548584 0l0 -65.97638l22.274353 0l0 -21.992126l-22.274353 0l0 -21.992126z" fill-rule="evenodd"/><path stroke="#000000" stroke-width="1.0" stroke-linejoin="round" stroke-linecap="butt" d="m134.74815 373.63516l0 21.992126l22.274323 0l0 43.984253l-66.82294 0l0 -43.984253l22.274307 0l0 -21.992126zm-44.548615 -21.992126l0 21.992126l-22.274315 0l0 21.992126l-22.274311 0l0 109.96063l44.548626 0l0 -43.984253l66.82294 0l0 43.984253l44.548615 0l0 -109.96063l-22.274307 0l0 -21.992126l-22.274307 0l0 -21.992126z" fill-rule="evenodd"/><path stroke="#000000" stroke-width="1.0" stroke-linejoin="round" stroke-linecap="butt" d="m246.11963 395.6273l0 21.992126l-22.274307 0l0 65.97638l22.274307 0l0 21.992126l133.64587 0l0 -21.992126l-111.37155 0l0 -65.97638l111.37155 0l0 -21.992126z" fill-rule="evenodd"/><path stroke="#000000" stroke-width="1.0" stroke-linejoin="round" stroke-linecap="butt" d="m402.03973 351.64304l0 153.94489l44.548615 0l0 -43.984253l44.548645 0l0 21.992126l22.274323 0l0 21.992126l44.548584 0l0 -21.992126l-22.274292 0l0 -21.992126l-22.274292 0l0 -21.992126l22.274292 0l0 -21.992126l22.274292 0l0 -21.992126l-44.548584 0l0 21.992126l-22.274323 0l0 21.992126l-44.548645 0l0 -87.968506z" fill-rule="evenodd"/><path stroke="#000000" stroke-width="1.0" stroke-linejoin="round" stroke-linecap="butt" d="m691.6057 417.61942l0 21.992126l-66.82294 0l0 -21.992126zm-89.09723 -21.992126l0 21.992126l-22.274292 0l0 65.97638l22.274292 0l0 21.992126l111.37158 0l0 -21.992126l-89.09729 0l0 -21.992126l111.37158 0l0 -43.984253l-22.274292 0l0 -21.992126z" fill-rule="evenodd"/><path stroke="#000000" stroke-width="1.0" stroke-linejoin="round" stroke-linecap="butt" d="m847.5258 395.6273l0 21.992126l66.82294 0l0 -21.992126zm-66.82294 0l0 109.96063l44.548584 0l0 -65.97638l22.274353 0l0 -21.992126l-22.274353 0l0 -21.992126z" fill-rule="evenodd"/></g></svg>
