<svg width="657" height="135" viewBox="0 0 657 135" fill="none" xmlns="http://www.w3.org/2000/svg">
<g filter="url(#filter0_i)">
<path d="M81.7686 29.56C81.7686 35 79.8486 39.704 76.0086 43.672C72.1686 47.576 66.5686 50.392 59.2086 52.12C63.1766 53.208 66.1846 55 68.2326 57.496C70.2806 59.928 71.3046 62.744 71.3046 65.944C71.3046 71 69.7046 75.384 66.5046 79.096C63.3686 82.808 58.7606 85.688 52.6806 87.736C46.6006 89.72 39.2726 90.712 30.6966 90.712C27.4966 90.712 24.9366 90.616 23.0166 90.424C22.9526 92.216 22.1846 93.56 20.7126 94.456C19.2406 95.352 17.3526 95.8 15.0486 95.8C12.7446 95.8 11.1446 95.288 10.2486 94.264C9.41661 93.24 9.06461 91.736 9.19261 89.752C9.76861 80.792 10.8886 71.416 12.5526 61.624C14.2166 51.768 16.3286 42.264 18.8886 33.112C19.3366 31.512 20.2326 30.392 21.5766 29.752C22.9206 29.112 24.6806 28.792 26.8566 28.792C30.7606 28.792 32.7126 29.88 32.7126 32.056C32.7126 32.952 32.5206 33.976 32.1366 35.128C30.4726 40.12 28.8086 46.904 27.1446 55.48C25.4806 63.992 24.2966 72.12 23.5926 79.864C26.6646 80.12 29.1606 80.248 31.0806 80.248C40.0406 80.248 46.6006 78.968 50.7606 76.408C54.9846 73.784 57.0966 70.456 57.0966 66.424C57.0966 63.608 55.8806 61.24 53.4486 59.32C51.0806 57.4 47.0806 56.344 41.4486 56.152C40.1686 56.088 39.2726 55.768 38.7606 55.192C38.2486 54.616 37.9926 53.688 37.9926 52.408C37.9926 50.552 38.3766 49.048 39.1446 47.896C39.9126 46.744 41.3206 46.136 43.3686 46.072C47.9126 45.944 52.0086 45.272 55.6566 44.056C59.3686 42.84 62.2806 41.144 64.3926 38.968C66.5046 36.728 67.5606 34.136 67.5606 31.192C67.5606 27.48 65.7366 24.568 62.0886 22.456C58.4406 20.28 52.8406 19.192 45.2886 19.192C38.4406 19.192 31.8166 20.088 25.4166 21.88C19.0166 23.608 13.5766 25.816 9.09661 28.504C7.04861 29.72 5.32061 30.328 3.91261 30.328C2.76061 30.328 1.86461 29.944 1.22461 29.176C0.648613 28.344 0.360613 27.32 0.360613 26.104C0.360613 24.504 0.680613 23.128 1.32061 21.976C2.02461 20.824 3.65661 19.512 6.21661 18.04C11.5926 14.968 17.8966 12.568 25.1286 10.84C32.3606 9.112 39.7526 8.248 47.3046 8.248C58.8886 8.248 67.5286 10.2 73.2246 14.104C78.9206 18.008 81.7686 23.16 81.7686 29.56ZM92.1959 91.48C89.7639 91.48 88.0359 90.2 87.0119 87.64C86.0519 85.08 85.5719 80.984 85.5719 75.352C85.5719 67.032 86.7559 59.128 89.1239 51.64C89.6999 49.784 90.6279 48.44 91.9079 47.608C93.2519 46.712 95.1079 46.264 97.4759 46.264C98.7559 46.264 99.6519 46.424 100.164 46.744C100.676 47.064 100.932 47.672 100.932 48.568C100.932 49.592 100.452 51.896 99.4919 55.48C98.8519 58.04 98.3399 60.28 97.9559 62.2C97.5719 64.12 97.2519 66.488 96.9959 69.304C99.1079 63.8 101.476 59.32 104.1 55.864C106.724 52.408 109.284 49.944 111.78 48.472C114.34 47 116.676 46.264 118.788 46.264C122.948 46.264 125.028 48.344 125.028 52.504C125.028 53.336 124.74 55.352 124.164 58.552C123.652 61.112 123.396 62.712 123.396 63.352C123.396 65.592 124.196 66.712 125.796 66.712C127.588 66.712 129.892 65.304 132.708 62.488C133.54 61.656 134.404 61.24 135.3 61.24C136.132 61.24 136.772 61.624 137.22 62.392C137.732 63.096 137.988 64.056 137.988 65.272C137.988 67.64 137.348 69.496 136.068 70.84C134.276 72.696 132.164 74.296 129.732 75.64C127.364 76.92 124.836 77.56 122.148 77.56C118.756 77.56 116.164 76.696 114.372 74.968C112.644 73.24 111.78 70.904 111.78 67.96C111.78 67 111.876 66.04 112.068 65.08C112.196 63.8 112.26 62.936 112.26 62.488C112.26 61.464 111.908 60.952 111.204 60.952C110.244 60.952 108.964 62.04 107.364 64.216C105.828 66.328 104.292 69.144 102.756 72.664C101.22 76.184 99.9719 79.896 99.0119 83.8C98.3079 86.808 97.4759 88.856 96.5159 89.944C95.6199 90.968 94.1799 91.48 92.1959 91.48ZM145.675 91.48C141.707 91.48 138.539 90.04 136.171 87.16C133.803 84.28 132.619 80.504 132.619 75.832C132.619 70.712 133.803 65.88 136.171 61.336C138.539 56.728 141.675 53.048 145.579 50.296C149.547 47.48 153.739 46.072 158.155 46.072C159.563 46.072 160.491 46.36 160.939 46.936C161.451 47.448 161.867 48.408 162.187 49.816C163.531 49.56 164.939 49.432 166.411 49.432C169.547 49.432 171.115 50.552 171.115 52.792C171.115 54.136 170.635 57.336 169.675 62.392C168.203 69.752 167.467 74.872 167.467 77.752C167.467 78.712 167.691 79.48 168.139 80.056C168.651 80.632 169.291 80.92 170.059 80.92C171.275 80.92 172.747 80.152 174.475 78.616C176.203 77.016 178.539 74.456 181.483 70.936C182.251 70.04 183.115 69.592 184.075 69.592C184.907 69.592 185.547 69.976 185.995 70.744C186.507 71.512 186.763 72.568 186.763 73.912C186.763 76.472 186.155 78.456 184.939 79.864C182.315 83.128 179.531 85.88 176.587 88.12C173.643 90.36 170.795 91.48 168.043 91.48C165.931 91.48 163.979 90.776 162.187 89.368C160.459 87.896 159.147 85.912 158.251 83.416C154.923 88.792 150.731 91.48 145.675 91.48ZM149.131 81.784C150.539 81.784 151.883 80.952 153.163 79.288C154.443 77.624 155.371 75.416 155.947 72.664L159.499 55C156.811 55.064 154.315 56.088 152.011 58.072C149.771 59.992 147.979 62.552 146.635 65.752C145.291 68.952 144.619 72.344 144.619 75.928C144.619 77.912 145.003 79.384 145.771 80.344C146.603 81.304 147.723 81.784 149.131 81.784ZM238.289 69.592C239.121 69.592 239.761 69.976 240.209 70.744C240.721 71.512 240.977 72.568 240.977 73.912C240.977 76.472 240.369 78.456 239.153 79.864C236.529 83.064 233.649 85.816 230.513 88.12C227.377 90.36 224.273 91.48 221.201 91.48C216.337 91.48 212.625 88.632 210.065 82.936C207.377 86.328 205.009 88.6 202.961 89.752C200.977 90.904 198.641 91.48 195.953 91.48C192.049 91.48 188.817 90.04 186.257 87.16C183.761 84.216 182.513 80.408 182.513 75.736C182.513 70.616 183.601 65.88 185.777 61.528C187.953 57.112 190.929 53.528 194.705 50.776C198.545 47.96 202.833 46.296 207.569 45.784C208.785 33.368 211.089 22.776 214.481 14.008C217.937 5.17599 222.449 0.759995 228.017 0.759995C230.769 0.759995 233.041 2.008 234.833 4.504C236.689 7 237.617 10.776 237.617 15.832C237.617 23 235.857 31.384 232.337 40.984C228.817 50.584 224.113 60.44 218.225 70.552C218.481 74.264 219.025 76.92 219.857 78.52C220.753 80.12 221.873 80.92 223.217 80.92C224.945 80.92 226.705 80.152 228.497 78.616C230.289 77.08 232.689 74.52 235.697 70.936C236.465 70.04 237.329 69.592 238.289 69.592ZM226.961 10.168C225.745 10.168 224.529 12.344 223.313 16.696C222.097 20.984 221.041 26.616 220.145 33.592C219.313 40.568 218.705 47.864 218.321 55.48C225.489 39.864 229.073 27.32 229.073 17.848C229.073 15.416 228.849 13.528 228.401 12.184C228.017 10.84 227.537 10.168 226.961 10.168ZM199.313 81.784C200.529 81.784 201.745 81.304 202.961 80.344C204.177 79.32 205.713 77.464 207.569 74.776C206.929 71.32 206.609 67.448 206.609 63.16C206.609 61.624 206.673 59.128 206.801 55.672C203.281 56.76 200.337 59.128 197.969 62.776C195.665 66.36 194.513 70.36 194.513 74.776C194.513 79.448 196.113 81.784 199.313 81.784ZM274.351 69.592C275.183 69.592 275.823 69.976 276.271 70.744C276.783 71.512 277.039 72.568 277.039 73.912C277.039 76.472 276.431 78.456 275.215 79.864C272.463 83.256 269.455 86.04 266.191 88.216C262.991 90.392 259.343 91.48 255.247 91.48C249.615 91.48 245.423 88.92 242.671 83.8C239.983 78.68 238.639 72.056 238.639 63.928C238.639 56.12 239.631 47.224 241.615 37.24C243.663 27.256 246.639 18.68 250.543 11.512C254.511 4.34399 259.215 0.759995 264.655 0.759995C267.727 0.759995 270.127 2.2 271.855 5.08C273.647 7.896 274.543 11.96 274.543 17.272C274.543 24.888 272.431 33.72 268.207 43.768C263.983 53.816 258.255 63.768 251.023 73.624C251.471 76.248 252.207 78.136 253.231 79.288C254.255 80.376 255.599 80.92 257.263 80.92C259.887 80.92 262.191 80.184 264.175 78.712C266.159 77.176 268.687 74.584 271.759 70.936C272.527 70.04 273.391 69.592 274.351 69.592ZM262.543 10.264C261.071 10.264 259.407 12.92 257.551 18.232C255.695 23.544 254.063 30.136 252.655 38.008C251.247 45.88 250.479 53.432 250.351 60.664C254.895 53.176 258.511 45.688 261.199 38.2C263.887 30.648 265.231 23.768 265.231 17.56C265.231 12.696 264.335 10.264 262.543 10.264ZM316.896 69.592C317.728 69.592 318.368 69.976 318.816 70.744C319.328 71.512 319.584 72.568 319.584 73.912C319.584 76.472 318.976 78.456 317.76 79.864C315.392 82.744 312.032 85.4 307.68 87.832C303.392 90.264 298.784 91.48 293.856 91.48C287.136 91.48 281.92 89.656 278.208 86.008C274.496 82.36 272.64 77.368 272.64 71.032C272.64 66.616 273.568 62.52 275.424 58.744C277.28 54.904 279.84 51.864 283.104 49.624C286.432 47.384 290.176 46.264 294.336 46.264C298.048 46.264 301.024 47.384 303.264 49.624C305.504 51.8 306.624 54.776 306.624 58.552C306.624 62.968 305.024 66.776 301.824 69.976C298.688 73.112 293.344 75.608 285.792 77.464C287.392 80.408 290.432 81.88 294.912 81.88C297.792 81.88 301.056 80.888 304.704 78.904C308.416 76.856 311.616 74.2 314.304 70.936C315.072 70.04 315.936 69.592 316.896 69.592ZM292.704 55.672C290.336 55.672 288.32 57.048 286.656 59.8C285.056 62.552 284.256 65.88 284.256 69.784V69.976C288.032 69.08 291.008 67.736 293.184 65.944C295.36 64.152 296.448 62.072 296.448 59.704C296.448 58.488 296.096 57.528 295.392 56.824C294.752 56.056 293.856 55.672 292.704 55.672ZM350.167 46.264C351.639 46.264 352.663 46.456 353.239 46.84C353.815 47.224 354.103 47.864 354.103 48.76C354.103 50.296 353.271 55.768 351.607 65.176C350.135 74.2 349.271 79.544 349.015 81.208C346.647 97.656 343.383 110.68 339.223 120.28C335.063 129.88 329.527 134.68 322.615 134.68C319.351 134.68 316.695 133.656 314.647 131.608C312.599 129.624 311.575 127 311.575 123.736C311.575 120.728 312.247 117.656 313.591 114.52C314.999 111.384 317.559 107.768 321.271 103.672C325.047 99.64 330.359 95 337.207 89.752L337.495 87.544C337.943 85.176 338.455 81.784 339.031 77.368C337.751 81.976 335.959 85.496 333.655 87.928C331.351 90.296 328.919 91.48 326.359 91.48C323.479 91.48 321.111 90.168 319.255 87.544C317.463 84.856 316.567 81.528 316.567 77.56C316.567 72.76 316.887 68.376 317.527 64.408C318.167 60.376 319.223 56.12 320.695 51.64C321.335 49.72 322.231 48.344 323.383 47.512C324.535 46.68 326.359 46.264 328.855 46.264C330.263 46.264 331.223 46.488 331.735 46.936C332.311 47.384 332.599 48.056 332.599 48.952C332.599 49.464 332.247 51.192 331.543 54.136C330.903 56.504 330.391 58.648 330.007 60.568C329.495 63.192 329.047 65.72 328.663 68.152C328.279 70.52 328.087 72.472 328.087 74.008C328.087 76.44 328.759 77.656 330.103 77.656C331.063 77.656 332.247 76.696 333.655 74.776C335.127 72.856 336.663 69.944 338.263 66.04C339.927 62.136 341.527 57.336 343.063 51.64C343.575 49.72 344.343 48.344 345.367 47.512C346.455 46.68 348.055 46.264 350.167 46.264ZM323.671 125.368C325.271 125.368 327.063 123.512 329.047 119.8C331.031 116.088 333.015 109.912 334.999 101.272C330.071 105.432 326.487 109.208 324.247 112.6C322.071 116.056 320.983 119.064 320.983 121.624C320.983 122.712 321.175 123.608 321.559 124.312C322.007 125.016 322.711 125.368 323.671 125.368ZM418.891 91.48C414.475 91.48 410.475 90.392 406.891 88.216C403.371 86.04 400.587 82.904 398.539 78.808C396.491 74.648 395.467 69.752 395.467 64.12C395.467 54.392 397.547 45.4 401.707 37.144C405.867 28.824 412.011 22.168 420.139 17.176C428.267 12.12 438.027 9.592 449.419 9.592C452.363 9.592 455.499 9.816 458.827 10.264C462.219 10.712 465.291 11.384 468.043 12.28C469.835 12.792 470.731 14.072 470.731 16.12C470.731 17.784 470.091 19.352 468.811 20.824C467.595 22.296 466.155 23.032 464.491 23.032C463.979 23.032 463.595 23 463.339 22.936C460.011 22.168 457.163 21.624 454.795 21.304C452.427 20.92 449.931 20.728 447.307 20.728C439.179 20.728 432.267 22.712 426.571 26.68C420.875 30.584 416.619 35.768 413.803 42.232C410.987 48.696 409.579 55.672 409.579 63.16C409.579 68.6 410.635 72.824 412.747 75.832C414.923 78.776 417.739 80.248 421.195 80.248C425.099 80.248 428.523 78.648 431.467 75.448C434.411 72.248 437.099 67.064 439.531 59.896C441.963 52.728 444.363 43 446.731 30.712C447.115 28.92 447.883 27.704 449.035 27.064C450.187 26.424 451.723 26.104 453.643 26.104C458.187 26.104 460.459 27.576 460.459 30.52C460.459 31.032 460.363 31.672 460.171 32.44C458.507 38.648 456.971 45.528 455.563 53.08C454.219 60.568 453.547 66.264 453.547 70.168C453.547 73.624 454.059 76.152 455.083 77.752C456.107 79.288 457.675 80.056 459.787 80.056C461.835 80.056 463.787 79.384 465.643 78.04C467.499 76.632 469.835 74.264 472.651 70.936C473.419 70.04 474.283 69.592 475.243 69.592C476.075 69.592 476.715 69.976 477.163 70.744C477.675 71.512 477.931 72.568 477.931 73.912C477.931 76.408 477.323 78.392 476.107 79.864C472.971 83.64 469.899 86.52 466.891 88.504C463.883 90.488 460.203 91.48 455.851 91.48C451.371 91.48 447.755 90.2 445.003 87.64C442.251 85.016 440.523 81.336 439.819 76.6C435.083 86.52 428.107 91.48 418.891 91.48ZM493.303 91.48C487.031 91.48 482.135 89.72 478.615 86.2C475.159 82.616 473.431 77.912 473.431 72.088C473.431 66.904 474.455 62.36 476.503 58.456C478.551 54.552 481.207 51.544 484.471 49.432C487.735 47.32 491.159 46.264 494.743 46.264C498.263 46.264 500.983 47.32 502.903 49.432C504.887 51.48 505.879 54.136 505.879 57.4C505.879 60.088 505.271 62.36 504.055 64.216C502.903 66.072 501.367 67 499.447 67C498.231 67 497.239 66.712 496.471 66.136C495.767 65.56 495.415 64.76 495.415 63.736C495.415 63.288 495.479 62.776 495.607 62.2C495.735 61.624 495.831 61.208 495.895 60.952C496.215 59.992 496.375 59.096 496.375 58.264C496.375 57.432 496.151 56.792 495.703 56.344C495.319 55.896 494.743 55.672 493.975 55.672C492.503 55.672 491.127 56.344 489.847 57.688C488.567 58.968 487.543 60.728 486.775 62.968C486.007 65.208 485.623 67.672 485.623 70.36C485.623 77.784 488.855 81.496 495.319 81.496C497.943 81.496 500.759 80.632 503.767 78.904C506.839 77.112 509.847 74.456 512.791 70.936C513.559 70.04 514.423 69.592 515.383 69.592C516.215 69.592 516.855 69.976 517.303 70.744C517.815 71.512 518.071 72.568 518.071 73.912C518.071 76.344 517.463 78.328 516.247 79.864C513.239 83.576 509.623 86.456 505.399 88.504C501.239 90.488 497.207 91.48 493.303 91.48ZM570.599 69.592C571.431 69.592 572.071 69.976 572.519 70.744C573.031 71.512 573.287 72.568 573.287 73.912C573.287 76.472 572.679 78.456 571.463 79.864C568.583 83.384 565.671 86.2 562.727 88.312C559.783 90.424 556.295 91.48 552.263 91.48C547.335 91.48 543.367 90.072 540.359 87.256C537.351 84.44 535.847 80.696 535.847 76.024C535.847 73.528 537.127 71.736 539.687 70.648C542.503 69.432 544.519 68.152 545.735 66.808C546.951 65.4 547.559 63.704 547.559 61.72C547.559 60.568 547.303 59.704 546.791 59.128C546.343 58.552 545.767 58.264 545.063 58.264C543.335 58.264 541.415 59.512 539.303 62.008C537.255 64.504 535.335 67.736 533.543 71.704C531.751 75.608 530.343 79.64 529.319 83.8C528.615 86.808 527.783 88.856 526.823 89.944C525.927 90.968 524.487 91.48 522.503 91.48C520.519 91.48 519.047 90.776 518.087 89.368C517.191 87.896 516.583 85.656 516.263 82.648C515.943 79.64 515.783 75.224 515.783 69.4C515.783 59.544 516.775 49.272 518.759 38.584C520.807 27.896 523.783 18.936 527.687 11.704C531.655 4.408 536.391 0.759995 541.895 0.759995C544.839 0.759995 547.207 2.04 548.999 4.6C550.855 7.09599 551.783 10.36 551.783 14.392C551.783 20.856 549.895 27.576 546.119 34.552C542.343 41.464 536.199 49.56 527.687 58.84C527.495 62.168 527.399 65.592 527.399 69.112C530.471 61.112 533.991 55.32 537.959 51.736C541.927 48.088 545.639 46.264 549.095 46.264C552.295 46.264 554.855 47.352 556.775 49.528C558.759 51.704 559.751 54.392 559.751 57.592C559.751 61.112 558.855 64.344 557.063 67.288C555.271 70.232 552.199 72.856 547.847 75.16C548.103 76.888 548.871 78.296 550.151 79.384C551.495 80.408 553.095 80.92 554.951 80.92C556.935 80.92 558.855 80.152 560.711 78.616C562.567 77.08 564.999 74.52 568.007 70.936C568.775 70.04 569.639 69.592 570.599 69.592ZM539.879 10.264C538.727 10.264 537.447 11.928 536.039 15.256C534.631 18.52 533.255 22.968 531.911 28.6C530.631 34.168 529.575 40.248 528.743 46.84C532.711 42.168 535.975 37.08 538.535 31.576C541.159 26.072 542.471 21.08 542.471 16.6C542.471 14.552 542.247 12.984 541.799 11.896C541.351 10.808 540.711 10.264 539.879 10.264ZM613.165 69.592C613.997 69.592 614.637 69.976 615.085 70.744C615.597 71.512 615.853 72.568 615.853 73.912C615.853 76.472 615.245 78.456 614.029 79.864C611.661 82.744 608.301 85.4 603.949 87.832C599.661 90.264 595.053 91.48 590.125 91.48C583.405 91.48 578.189 89.656 574.477 86.008C570.765 82.36 568.909 77.368 568.909 71.032C568.909 66.616 569.837 62.52 571.693 58.744C573.549 54.904 576.109 51.864 579.373 49.624C582.701 47.384 586.445 46.264 590.605 46.264C594.317 46.264 597.293 47.384 599.533 49.624C601.773 51.8 602.893 54.776 602.893 58.552C602.893 62.968 601.293 66.776 598.093 69.976C594.957 73.112 589.613 75.608 582.061 77.464C583.661 80.408 586.701 81.88 591.181 81.88C594.061 81.88 597.325 80.888 600.973 78.904C604.685 76.856 607.885 74.2 610.573 70.936C611.341 70.04 612.205 69.592 613.165 69.592ZM588.973 55.672C586.605 55.672 584.589 57.048 582.925 59.8C581.325 62.552 580.525 65.88 580.525 69.784V69.976C584.301 69.08 587.277 67.736 589.453 65.944C591.629 64.152 592.717 62.072 592.717 59.704C592.717 58.488 592.365 57.528 591.661 56.824C591.021 56.056 590.125 55.672 588.973 55.672ZM651.62 59.416C653.028 59.416 654.212 59.928 655.172 60.952C656.196 61.912 656.708 63.128 656.708 64.6C656.708 65.432 656.516 66.328 656.132 67.288C655.108 69.656 653.668 71.64 651.812 73.24C649.956 74.84 647.908 75.64 645.668 75.64C643.876 75.64 642.34 75 641.06 73.72C639.844 72.44 639.236 70.712 639.236 68.536C639.236 67.32 639.3 66.008 639.428 64.6C639.556 63.576 639.62 62.872 639.62 62.488C639.62 61.976 639.492 61.592 639.236 61.336C639.044 61.08 638.788 60.952 638.468 60.952C637.572 60.952 636.356 62.04 634.82 64.216C633.284 66.328 631.748 69.144 630.212 72.664C628.676 76.184 627.428 79.896 626.468 83.8C625.764 86.872 624.964 88.92 624.068 89.944C623.172 90.968 621.7 91.48 619.652 91.48C617.22 91.48 615.492 90.2 614.468 87.64C613.508 85.08 613.028 80.984 613.028 75.352C613.028 67.032 614.212 59.128 616.58 51.64C617.156 49.784 618.084 48.44 619.364 47.608C620.708 46.712 622.564 46.264 624.932 46.264C626.212 46.264 627.108 46.424 627.62 46.744C628.132 47.064 628.388 47.672 628.388 48.568C628.388 49.592 627.908 51.896 626.948 55.48C626.308 58.04 625.796 60.28 625.412 62.2C625.028 64.12 624.708 66.488 624.452 69.304C626.564 63.8 628.932 59.32 631.556 55.864C634.18 52.408 636.74 49.944 639.236 48.472C641.732 47 644.004 46.264 646.052 46.264C647.908 46.264 649.316 46.808 650.276 47.896C651.3 48.92 651.812 50.456 651.812 52.504C651.812 53.72 651.46 56.024 650.756 59.416H651.62Z" fill="#FE4703"/>
</g>
<defs>
<filter id="filter0_i" x="0.360626" y="0.76001" width="656.347" height="137.92" filterUnits="userSpaceOnUse" color-interpolation-filters="sRGB">
<feFlood flood-opacity="0" result="BackgroundImageFix"/>
<feBlend mode="normal" in="SourceGraphic" in2="BackgroundImageFix" result="shape"/>
<feColorMatrix in="SourceAlpha" type="matrix" values="0 0 0 0 0 0 0 0 0 0 0 0 0 0 0 0 0 0 127 0" result="hardAlpha"/>
<feOffset dy="4"/>
<feGaussianBlur stdDeviation="2"/>
<feComposite in2="hardAlpha" operator="arithmetic" k2="-1" k3="1"/>
<feColorMatrix type="matrix" values="0 0 0 0 0 0 0 0 0 0 0 0 0 0 0 0 0 0 0.25 0"/>
<feBlend mode="normal" in2="shape" result="effect1_innerShadow"/>
</filter>
</defs>
</svg>
