<svg viewBox="0 0 840 113" fill="none" xmlns="http://www.w3.org/2000/svg">
<path d="M58.5984 25.5156C58.5984 33.8594 54.8484 39.7188 47.3484 43.0938C54.6609 45.5312 59.4891 49.6094 61.8328 55.3281C62.6766 57.4844 63.0984 60.0625 63.0984 63.0625C63.0984 65.9688 62.5359 68.8281 61.4109 71.6406C60.3797 74.3594 58.6922 76.75 56.3484 78.8125C51.3797 82.9375 43.7391 85 33.4266 85H5.58282C4.17657 85 2.95782 84.4844 1.92657 83.4531C0.895325 82.4219 0.3797 81.2031 0.3797 79.7969V9.90625C0.3797 8.5 0.895325 7.28125 1.92657 6.25C2.95782 5.125 4.17657 4.5625 5.58282 4.5625H32.8641C41.3016 4.5625 47.6766 6.53125 51.9891 10.4688C56.3953 14.3125 58.5984 19.3281 58.5984 25.5156ZM48.6141 26.2188C48.6141 22.6563 47.1609 19.7969 44.2547 17.6406C41.4422 15.4844 37.3641 14.4062 32.0203 14.4062H10.9266V39.2969H30.0516C39.9891 39.2969 45.8953 36.6719 47.7703 31.4219C48.3328 29.8281 48.6141 28.0938 48.6141 26.2188ZM32.4422 75.1562C43.3172 75.1562 49.8328 72.5312 51.9891 67.2812C52.6453 65.5938 52.9734 63.8125 52.9734 61.9375C52.9734 57.3438 51.2391 54.0156 47.7703 51.9531C44.3016 49.7969 39.2391 48.7188 32.5828 48.7188H10.9266V75.1562H32.4422ZM95.7516 35.9219C101.189 28.7031 107.236 25.0938 113.892 25.0938H114.455C115.861 25.0938 117.033 25.6094 117.97 26.6406C119.002 27.5781 119.517 28.7969 119.517 30.2969C119.517 31.7969 119.002 33.0156 117.97 33.9531C116.939 34.7969 115.673 35.2188 114.173 35.2188H113.611C109.767 35.2188 106.345 36.1562 103.345 38.0312C100.345 39.9062 97.8141 42.3438 95.7516 45.3438V80.3594C95.7516 81.7656 95.2359 82.9844 94.2047 84.0156C93.1734 85.0469 91.9547 85.5625 90.5484 85.5625C89.1422 85.5625 87.9234 85.0469 86.8922 84.0156C85.8609 82.9844 85.3453 81.7656 85.3453 80.3594V31C85.3453 29.5938 85.8141 28.375 86.7516 27.3438C87.7828 26.2188 89.0484 25.6562 90.5484 25.6562C91.9547 25.6562 93.1734 26.1719 94.2047 27.2031C95.2359 28.2344 95.7516 29.5 95.7516 31V35.9219ZM139.092 29.1719C145.561 26.3594 152.264 25 159.202 25.0938C166.983 25.0938 173.03 27.4844 177.342 32.2656C181.186 36.3906 183.155 41.5469 183.248 47.7344V80.3594C183.248 81.7656 182.686 82.9844 181.561 84.0156C180.53 85.0469 179.264 85.5625 177.764 85.5625C176.358 85.5625 175.139 85.0469 174.108 84.0156C173.077 82.9844 172.561 81.7656 172.561 80.3594V77.4062C170.498 79.5625 167.733 81.5781 164.264 83.4531C160.795 85.2344 156.389 86.125 151.045 86.125C145.702 86.125 141.248 84.5781 137.686 81.4844C134.03 78.2969 132.202 74.125 132.202 68.9688C132.202 63.25 134.358 58.75 138.67 55.4688C143.358 51.9062 150.014 50.1719 158.639 50.2656H172.561V49.2812C172.561 44.125 171.295 40.4688 168.764 38.3125C166.327 36.1562 162.483 35.0781 157.233 35.0781C152.827 35.0781 147.717 35.9688 141.905 37.75C141.342 37.9375 140.639 38.0312 139.795 38.0312C139.045 38.0312 138.248 37.6562 137.405 36.9062C136.561 36.0625 136.092 34.7969 135.998 33.1094C135.998 31.3281 137.03 30.0156 139.092 29.1719ZM142.748 67.7031C142.748 73.8906 146.827 76.9375 154.983 76.8438C158.545 76.8438 161.873 76 164.967 74.3125C168.155 72.5312 170.686 70.5625 172.561 68.4062V58.7031H160.186C154.748 58.7031 150.483 59.4062 147.389 60.8125C144.295 62.125 142.748 64.4219 142.748 67.7031ZM252.042 77.4062C246.323 83.2188 239.761 86.125 232.355 86.125C225.042 86.125 218.667 83.5469 213.23 78.3906C207.417 72.5781 204.464 64.9844 204.37 55.6094C204.37 46.4219 207.323 38.875 213.23 32.9688C218.573 27.625 224.948 25 232.355 25.0938C239.761 25.0938 246.323 28 252.042 33.8125V5.54688C252.042 4.04688 252.511 2.82812 253.448 1.89062C254.48 0.859375 255.745 0.34375 257.245 0.34375C258.745 0.34375 259.964 0.859375 260.902 1.89062C261.933 2.82812 262.448 4.04688 262.448 5.54688V80.3594C262.448 81.7656 261.933 82.9844 260.902 84.0156C259.964 85.0469 258.745 85.5625 257.245 85.5625C255.745 85.5625 254.48 85.0469 253.448 84.0156C252.511 82.9844 252.042 81.7656 252.042 80.3594V77.4062ZM252.042 43.5156C246.792 37.7031 240.698 34.8438 233.761 34.9375C224.948 34.9375 219.183 38.8281 216.464 46.6094C215.527 49.2344 215.011 52.2344 214.917 55.6094C214.917 62.1719 216.698 67.375 220.261 71.2188C223.542 74.6875 228.042 76.375 233.761 76.2812C240.698 76.2812 246.792 73.4219 252.042 67.7031V43.5156ZM288.633 5.54688C288.633 4.04688 289.148 2.82812 290.18 1.89062C291.211 0.859375 292.477 0.34375 293.977 0.34375C295.477 0.34375 296.695 0.859375 297.633 1.89062C298.664 2.82812 299.18 4.04688 299.18 5.54688V80.3594C299.18 81.7656 298.664 82.9844 297.633 84.0156C296.695 85.0469 295.477 85.5625 293.977 85.5625C292.477 85.5625 291.211 85.0469 290.18 84.0156C289.148 82.9844 288.633 81.7656 288.633 80.3594V5.54688ZM332.395 59.4062C333.052 64.5625 335.02 68.6875 338.302 71.7812C341.677 74.7812 346.27 76.2812 352.083 76.2812C357.989 76.2812 363.005 75.3438 367.13 73.4688C368.442 72.8125 369.614 72.4844 370.645 72.4844C371.677 72.3906 372.614 72.7656 373.458 73.6094C374.395 74.4531 374.864 75.3906 374.864 76.4219C374.864 78.4844 374.02 79.9375 372.333 80.7812C370.739 81.625 369.286 82.375 367.973 83.0312C366.661 83.6875 365.255 84.25 363.755 84.7188C360.286 85.6562 356.255 86.125 351.661 86.125C342.192 86.125 334.833 83.5 329.583 78.25C324.427 72.9062 321.848 65.3594 321.848 55.6094C321.848 47.1719 324.052 40.1406 328.458 34.5156C333.427 28.2344 340.411 25.0938 349.411 25.0938C358.036 25.0938 364.833 28 369.802 33.8125C374.489 39.25 376.833 46.0469 376.833 54.2031C376.833 55.6094 376.317 56.8281 375.286 57.8594C374.348 58.8906 373.13 59.4062 371.63 59.4062H332.395ZM349.411 33.9531C342.567 33.9531 337.598 37 334.505 43.0938C333.38 45.25 332.677 47.8281 332.395 50.8281H366.427C366.145 45.3906 364.13 41.0781 360.38 37.8906C357.38 35.2656 353.723 33.9531 349.411 33.9531ZM442.392 25.6562C443.892 25.6562 445.111 26.1719 446.048 27.2031C447.08 28.2344 447.595 29.3125 447.595 30.4375C447.595 31.5625 447.455 32.4062 447.173 32.9688L415.814 108.484C414.877 110.922 413.283 112.141 411.033 112.141C409.72 112.141 408.548 111.625 407.517 110.594C406.58 109.562 406.111 108.531 406.111 107.5C406.111 106.562 406.205 105.766 406.392 105.109L413.845 85.8438L392.189 33.1094C391.908 32.3594 391.767 31.4688 391.767 30.4375C391.767 29.3125 392.236 28.2344 393.173 27.2031C394.205 26.1719 395.33 25.6562 396.548 25.6562C399.08 25.6562 400.814 26.7344 401.752 28.8906L419.47 72.9062L437.611 29.0312C438.548 26.6875 440.142 25.5625 442.392 25.6562ZM573.933 78.1094C574.308 79.0469 574.495 80.0312 574.495 81.0625C574.495 82 574.027 82.9844 573.089 84.0156C572.245 85.0469 570.792 85.5625 568.73 85.5625C566.761 85.5625 565.308 84.4844 564.37 82.3281L556.917 64.4688H517.683L510.37 82.3281C509.433 84.4844 507.933 85.5625 505.87 85.5625C503.902 85.5625 502.448 85.0469 501.511 84.0156C500.667 82.9844 500.245 82 500.245 81.0625C500.245 80.0312 500.433 79.0469 500.808 78.1094L530.058 8.78125C531.37 5.59375 533.62 4 536.808 4H537.933C541.027 4 543.277 5.59375 544.683 8.78125L573.933 78.1094ZM552.98 54.9062L537.37 17.3594L521.761 54.9062H552.98ZM621.492 76.2812C625.805 76.2812 629.883 75.25 633.727 73.1875C635.039 72.4375 636.258 72.0625 637.383 72.0625C638.508 71.9688 639.492 72.4375 640.336 73.4688C641.18 74.5 641.602 75.7188 641.602 77.125C641.602 78.4375 640.711 79.6562 638.93 80.7812C633.492 84.3438 627.398 86.125 620.648 86.125C612.117 86.125 604.898 83.4531 598.992 78.1094C592.805 72.3906 589.758 64.8906 589.852 55.6094C589.852 46.3281 592.898 38.8281 598.992 33.1094C604.805 27.6719 612.023 25 620.648 25.0938C625.242 25.0938 628.992 25.7031 631.898 26.9219C634.898 28.0469 637.242 29.2188 638.93 30.4375C640.711 31.5625 641.602 32.8281 641.602 34.2344C641.602 35.6406 641.18 36.8125 640.336 37.75C639.492 38.6875 638.648 39.1562 637.805 39.1562C636.492 39.1562 635.133 38.7812 633.727 38.0312C629.789 35.875 625.711 34.8438 621.492 34.9375C614.742 34.9375 609.492 36.8594 605.742 40.7031C602.086 44.4531 600.258 49.4219 600.258 55.6094C600.258 61.7969 602.086 66.8125 605.742 70.6562C609.492 74.4062 614.742 76.2812 621.492 76.2812ZM711.098 77.4062C711.848 78.3438 712.223 79.5156 712.223 80.9219C712.223 82.2344 711.708 83.3594 710.677 84.2969C709.739 85.1406 708.661 85.5625 707.442 85.5625C705.567 85.5625 703.973 84.8594 702.661 83.4531L682.833 56.4531L672.848 65.5938V80.3594C672.848 81.7656 672.333 82.9844 671.302 84.0156C670.27 85.0469 669.052 85.5625 667.645 85.5625C666.239 85.5625 665.02 85.0469 663.989 84.0156C662.958 82.9844 662.442 81.7656 662.442 80.3594V5.54688C662.442 4.14062 662.911 2.92188 663.848 1.89062C664.88 0.859375 666.145 0.34375 667.645 0.34375C669.052 0.34375 670.27 0.859375 671.302 1.89062C672.333 2.92188 672.848 4.14062 672.848 5.54688V52.6562L700.27 27.3438C701.489 26.4062 702.848 25.9375 704.348 25.9375C705.942 25.9375 707.067 26.5 707.723 27.625C708.473 28.6562 708.848 29.5938 708.848 30.4375C708.848 32.125 708.192 33.625 706.88 34.9375L690.286 49.8438L711.098 77.4062ZM739.533 59.4062C740.189 64.5625 742.158 68.6875 745.439 71.7812C748.814 74.7812 753.408 76.2812 759.22 76.2812C765.127 76.2812 770.142 75.3438 774.267 73.4688C775.58 72.8125 776.752 72.4844 777.783 72.4844C778.814 72.3906 779.752 72.7656 780.595 73.6094C781.533 74.4531 782.002 75.3906 782.002 76.4219C782.002 78.4844 781.158 79.9375 779.47 80.7812C777.877 81.625 776.423 82.375 775.111 83.0312C773.798 83.6875 772.392 84.25 770.892 84.7188C767.423 85.6562 763.392 86.125 758.798 86.125C749.33 86.125 741.97 83.5 736.72 78.25C731.564 72.9062 728.986 65.3594 728.986 55.6094C728.986 47.1719 731.189 40.1406 735.595 34.5156C740.564 28.2344 747.548 25.0938 756.548 25.0938C765.173 25.0938 771.97 28 776.939 33.8125C781.627 39.25 783.97 46.0469 783.97 54.2031C783.97 55.6094 783.455 56.8281 782.423 57.8594C781.486 58.8906 780.267 59.4062 778.767 59.4062H739.533ZM756.548 33.9531C749.705 33.9531 744.736 37 741.642 43.0938C740.517 45.25 739.814 47.8281 739.533 50.8281H773.564C773.283 45.3906 771.267 41.0781 767.517 37.8906C764.517 35.2656 760.861 33.9531 756.548 33.9531ZM815.639 35.9219C821.077 28.7031 827.123 25.0938 833.78 25.0938H834.342C835.748 25.0938 836.92 25.6094 837.858 26.6406C838.889 27.5781 839.405 28.7969 839.405 30.2969C839.405 31.7969 838.889 33.0156 837.858 33.9531C836.827 34.7969 835.561 35.2188 834.061 35.2188H833.498C829.655 35.2188 826.233 36.1562 823.233 38.0312C820.233 39.9062 817.702 42.3438 815.639 45.3438V80.3594C815.639 81.7656 815.123 82.9844 814.092 84.0156C813.061 85.0469 811.842 85.5625 810.436 85.5625C809.03 85.5625 807.811 85.0469 806.78 84.0156C805.748 82.9844 805.233 81.7656 805.233 80.3594V31C805.233 29.5938 805.702 28.375 806.639 27.3438C807.67 26.2188 808.936 25.6562 810.436 25.6562C811.842 25.6562 813.061 26.1719 814.092 27.2031C815.123 28.2344 815.639 29.5 815.639 31V35.9219Z" fill="#FE4703"/>
</svg>
